<svg xmlns="http://www.w3.org/2000/svg" width="17.181" height="17.182" viewBox="0 0 17.181 17.182">
  <defs>
    <style>
      .cls-1 {
        fill: #353f49;
        opacity: 0.3;
      }
    </style>
  </defs>
  <path id="compartilhar" class="cls-1" d="M171.041,3.14a.478.478,0,0,0-.5-.113L154.319,8.754a.477.477,0,0,0,0,.9l7.559,2.648,2.648,7.559a.477.477,0,0,0,.449.319h0a.478.478,0,0,0,.451-.318l5.727-16.226A.479.479,0,0,0,171.041,3.14Zm-6.062,15.125L162.8,12.053l2.487-2.488a.477.477,0,0,0-.675-.675l-2.487,2.488L155.917,9.2l14.005-4.943Z" transform="translate(-154 -2.999)"/>
</svg>
