<svg xmlns="http://www.w3.org/2000/svg" width="31" height="31" viewBox="0 0 31 31">
  <defs>
    <style>
      .cls-1 {
        opacity: 0.5;
      }

      .cls-2 {
        fill: #fff;
      }

      .cls-3 {
        fill: none;
        stroke-linejoin: round;
      }

      .cls-4, .cls-5 {
        stroke: none;
      }

      .cls-5 {
        fill: #353f49;
      }
    </style>
  </defs>
  <g id="const_-_botao_play" data-name="const - botao play" class="cls-1" transform="translate(17637 19213)">
    <circle id="Ellipse_11" data-name="Ellipse 11" class="cls-2" cx="15.5" cy="15.5" r="15.5" transform="translate(-17637 -19213)"/>
    <g id="Path_113" data-name="Path 113" class="cls-3" transform="translate(-1767.668 -12.391)">
      <path class="cls-4" d="M-15856.667-19190l10,5.32-10,5.32Z"/>
      <path class="cls-5" d="M -15856.6669921875 -19190 L -15856.6669921875 -19179.359375 L -15846.666015625 -19184.6796875 L -15856.6669921875 -19190 M -15856.6669921875 -19192 C -15856.3447265625 -19192 -15856.021484375 -19191.921875 -15855.7275390625 -19191.765625 L -15845.7265625 -19186.4453125 C -15845.07421875 -19186.09765625 -15844.666015625 -19185.419921875 -15844.666015625 -19184.6796875 C -15844.666015625 -19183.939453125 -15845.07421875 -19183.26171875 -15845.7265625 -19182.9140625 L -15855.7275390625 -19177.59375 C -15856.021484375 -19177.4375 -15856.3447265625 -19177.359375 -15856.6669921875 -19177.359375 C -15857.0244140625 -19177.359375 -15857.380859375 -19177.455078125 -15857.697265625 -19177.64453125 C -15858.298828125 -19178.005859375 -15858.6669921875 -19178.658203125 -15858.6669921875 -19179.359375 L -15858.6669921875 -19190 C -15858.6669921875 -19190.701171875 -15858.298828125 -19191.353515625 -15857.697265625 -19191.71484375 C -15857.380859375 -19191.904296875 -15857.0244140625 -19192 -15856.6669921875 -19192 Z"/>
    </g>
  </g>
</svg>
