<svg xmlns="http://www.w3.org/2000/svg" width="18.773" height="17.998" viewBox="0 0 18.773 17.998">
  <defs>
    <style>
      .cls-1 {
        fill: #353f49;
        opacity: 0.3;
      }

      .cls-2 {
        fill: #fff;
      }
    </style>
  </defs>
  <g id="estrela_-_inativa" data-name="estrela - inativa" transform="translate(12727 18649.568)">
    <path id="Path_301" data-name="Path 301" class="cls-1" d="M123.287,79.783a1.452,1.452,0,0,1-.68-.169L118.387,77.4l-4.221,2.218a1.458,1.458,0,0,1-2.116-1.537l.806-4.7-3.414-3.329a1.459,1.459,0,0,1,.808-2.488l4.719-.686,2.111-4.275a1.458,1.458,0,0,1,2.615,0l2.111,4.275,4.719.686a1.459,1.459,0,0,1,.808,2.488l-3.414,3.329.806,4.7a1.462,1.462,0,0,1-1.436,1.707Z" transform="translate(-12836 -18711.354)"/>
    <path id="Path_302" data-name="Path 302" class="cls-2" d="M119.4,77.372a.486.486,0,0,1,.23.057l4.45,2.339a.471.471,0,0,0,.683-.5l-.849-4.955a.493.493,0,0,1,.142-.437l3.6-3.509a.471.471,0,0,0-.26-.8l-4.976-.723a.494.494,0,0,1-.372-.27l-2.225-4.509h0a.485.485,0,0,0-.844,0l-2.225,4.509a.494.494,0,0,1-.372.27l-4.976.723a.471.471,0,0,0-.26.8l3.6,3.509a.493.493,0,0,1,.142.437l-.849,4.955a.471.471,0,0,0,.683.5l4.45-2.339A.486.486,0,0,1,119.4,77.372Z" transform="translate(-12837.012 -18712.383)"/>
  </g>
</svg>
