<svg xmlns="http://www.w3.org/2000/svg" width="25" height="25.002" viewBox="0 0 25 25.002">
  <defs>
    <style>
      .cls-1 {
        fill: #fff;
      }
    </style>
  </defs>
  <g id="nav_roxa_-_3_construtor_inativo" data-name="nav roxa - 3 construtor inativo" transform="translate(-148.668 -99.25)">
    <g id="Group_80" data-name="Group 80" transform="translate(154.399 107.154)">
      <path id="Path_98" data-name="Path 98" class="cls-1" d="M161.569,120a.7.7,0,0,1-.5-.206l-4.059-4.06a.7.7,0,0,1,0-1l4.059-4.059a.7.7,0,0,1,1,1l-3.562,3.562,3.562,3.562a.7.7,0,0,1-.5,1.2Z" transform="translate(-156.805 -110.473)"/>
      <path id="Path_99" data-name="Path 99" class="cls-1" d="M168.968,120a.7.7,0,0,1-.5-1.2l3.562-3.562-3.562-3.562a.7.7,0,0,1,1-1l4.059,4.059a.7.7,0,0,1,0,1l-4.059,4.06A.7.7,0,0,1,168.968,120Z" transform="translate(-160.194 -110.473)"/>
    </g>
    <path id="Path_100" data-name="Path 100" class="cls-1" d="M173.462,104.826l-5.369-5.369a.7.7,0,0,0-.5-.206H152.188a3.525,3.525,0,0,0-3.521,3.521V120.73a3.526,3.526,0,0,0,3.521,3.521h17.958a3.526,3.526,0,0,0,3.521-3.521V105.324A.7.7,0,0,0,173.462,104.826Zm-3.315,18.017H152.188a2.115,2.115,0,0,1-2.113-2.113V102.771a2.115,2.115,0,0,1,2.113-2.113H167.3l4.957,4.957V120.73A2.115,2.115,0,0,1,170.147,122.842Z" transform="translate(0)"/>
  </g>
</svg>
