<svg xmlns="http://www.w3.org/2000/svg" width="25.004" height="26.199" viewBox="0 0 25.004 26.199">
  <defs>
    <style>
      .cls-1 {
        fill: #353f49;
      }
    </style>
  </defs>
  <g id="nav_branca_-_2_trilha" data-name="nav branca - 2 trilha" transform="translate(-76.408 -122.789)">
    <path id="Path_316" data-name="Path 316" class="cls-1" d="M84.678,131.861l-1,1,1,1a.7.7,0,0,1-1,1l-1-1-1,1a.7.7,0,0,1-1-1l1-1-1-1a.7.7,0,1,1,1-1l1,1,1-1a.7.7,0,0,1,1,1Z" transform="translate(-1.207 -2.328)"/>
    <path id="Path_317" data-name="Path 317" class="cls-1" d="M98,148.989l-.092-.006-9-1.185-9.092,1.191a3.414,3.414,0,0,1-3.409-3.41V127.4a3.413,3.413,0,0,1,3.361-3.409l9.141-1.2,9.141,1.2a3.413,3.413,0,0,1,3.361,3.409v18.176A3.414,3.414,0,0,1,98,148.989ZM79.817,125.4a2,2,0,0,0-2,2v18.176a2,2,0,0,0,1.959,2l9.135-1.2,9.135,1.2a2,2,0,0,0,1.959-2V127.4a2,2,0,0,0-2-2l-.092-.006-9-1.185Z" transform="translate(0)"/>
    <path id="Path_318" data-name="Path 318" class="cls-1" d="M101.354,153.047a2.673,2.673,0,1,0-2.674-2.673A2.676,2.676,0,0,0,101.354,153.047Zm0-3.938a1.265,1.265,0,1,1-1.265,1.265A1.266,1.266,0,0,1,101.354,149.109Z" transform="translate(-6.59 -7.37)"/>
    <g id="Group_296" data-name="Group 296" transform="translate(79.503 126.651)">
      <path id="Path_319" data-name="Path 319" class="cls-1" d="M87.819,133.733a.7.7,0,0,0,.446-.16q.269-.22.534-.422a.7.7,0,1,0-.856-1.119c-.188.144-.379.294-.57.452a.7.7,0,0,0,.446,1.248Z" transform="translate(-82.67 -129.343)"/>
      <path id="Path_320" data-name="Path 320" class="cls-1" d="M87.788,146.2a.7.7,0,0,0,.015-1.408,9.714,9.714,0,0,1-1.353-.123.7.7,0,1,0-.23,1.389,11.05,11.05,0,0,0,1.552.142ZM83.6,145.086a.7.7,0,0,0,.37-1.3,4.571,4.571,0,0,1-.978-.8.7.7,0,1,0-1.038.952,5.975,5.975,0,0,0,1.277,1.044A.7.7,0,0,0,83.6,145.086Zm-2.095-3.578a.7.7,0,0,0,.7-.61,1.808,1.808,0,0,1,.43-.948.7.7,0,1,0-1.067-.917,3.226,3.226,0,0,0-.758,1.677.705.705,0,0,0,.6.792A.876.876,0,0,0,81.508,141.509Zm11.73-2a.648.648,0,0,0,.137-.013,6.069,6.069,0,0,0,1.554-.548.7.7,0,0,0-.635-1.258,4.635,4.635,0,0,1-1.192.424.7.7,0,0,0,.136,1.395Zm-2.9-.146a.7.7,0,0,0,.123-1.4c-.475-.085-.944-.187-1.406-.287a.7.7,0,1,0-.3,1.377c.479.1.964.208,1.457.3A.68.68,0,0,0,90.336,139.363Zm-5.766-.637a.7.7,0,0,0,.152-.017,4.931,4.931,0,0,1,1.271-.1.7.7,0,0,0,.058-1.407,6.34,6.34,0,0,0-1.632.13.7.7,0,0,0,.151,1.392Zm12.285-1.541a.7.7,0,0,0,.558-.275,5.68,5.68,0,0,0,.821-1.444.7.7,0,1,0-1.316-.5,4.315,4.315,0,0,1-.62,1.086.7.7,0,0,0,.557,1.134Zm.684-4.12a.706.706,0,0,0,.664-.939,6.045,6.045,0,0,0-.753-1.467.7.7,0,0,0-1.153.81,4.606,4.606,0,0,1,.577,1.125A.706.706,0,0,0,97.539,133.065Zm-8.57-2.405a.7.7,0,0,0,.315-.075,10.042,10.042,0,0,1,1.255-.531.7.7,0,0,0-.453-1.334,11.5,11.5,0,0,0-1.434.606.7.7,0,0,0,.317,1.334ZM94.606,130a.7.7,0,0,0,.249-1.363,5.955,5.955,0,0,0-1.612-.358.7.7,0,0,0-.115,1.4,4.521,4.521,0,0,1,1.229.272A.7.7,0,0,0,94.606,130Z" transform="translate(-80.803 -128.273)"/>
      <path id="Path_321" data-name="Path 321" class="cls-1" d="M94.605,152.691a.682.682,0,0,0,.135-.013q.353-.069.717-.156a.7.7,0,1,0-.327-1.37c-.224.054-.444.1-.66.144a.7.7,0,0,0,.134,1.4Z" transform="translate(-84.679 -135.037)"/>
    </g>
  </g>
</svg>
