<svg xmlns="http://www.w3.org/2000/svg" width="25" height="25" viewBox="0 0 25 25">
  <defs>
    <style>
      .cls-1 {
        fill: #fff;
      }
    </style>
  </defs>
  <path id="nav_roxa_-_1_inicio_inativo" data-name="nav roxa - 1 inicio inativo" class="cls-1" d="M30.306,31H21.972a.694.694,0,0,1-.694-.694V22.667H15.722v7.639a.694.694,0,0,1-.694.694H6.694A.694.694,0,0,1,6,30.306V15.028a.7.7,0,0,1,.294-.567L18.1,6.127a.7.7,0,0,1,.8,0L30.706,14.46a.7.7,0,0,1,.294.567V30.306A.694.694,0,0,1,30.306,31Zm-7.639-1.389h6.944V15.388L18.5,7.544,7.389,15.388V29.611h6.944V21.972a.694.694,0,0,1,.694-.694h6.944a.694.694,0,0,1,.694.694Z" transform="translate(-6 -6)"/>
</svg>
